<svg width="841" height="616" viewBox="0 0 841 616" fill="none" xmlns="http://www.w3.org/2000/svg">
<path d="M0.666667 610.5C0.666667 613.445 3.05448 615.833 6 615.833C8.94552 615.833 11.3333 613.445 11.3333 610.5C11.3333 607.555 8.94552 605.167 6 605.167C3.05448 605.167 0.666667 607.555 0.666667 610.5ZM834.5 0L829.277 10.2982L840.807 9.67235L834.5 0ZM19.3894 603.009C19.8521 602.708 19.9829 602.088 19.6814 601.625C19.3799 601.163 18.7604 601.032 18.2977 601.333L19.3894 603.009ZM43.5583 584.72C43.0983 585.026 42.973 585.646 43.2785 586.106C43.5841 586.567 44.2047 586.692 44.6648 586.386L43.5583 584.72ZM69.7737 569.537C70.2307 569.227 70.35 568.605 70.0399 568.148C69.7299 567.691 69.1081 567.572 68.651 567.882L69.7737 569.537ZM93.5703 550.787C93.1166 551.102 93.0041 551.725 93.319 552.178C93.634 552.632 94.257 552.745 94.7107 552.43L93.5703 550.787ZM119.464 535.028C119.914 534.707 120.019 534.083 119.699 533.633C119.378 533.183 118.754 533.078 118.304 533.399L119.464 535.028ZM142.831 515.68C142.385 516.007 142.289 516.633 142.615 517.078C142.942 517.523 143.568 517.62 144.013 517.293L142.831 515.68ZM168.325 499.185C168.765 498.851 168.852 498.224 168.518 497.784C168.185 497.343 167.558 497.257 167.117 497.59L168.325 499.185ZM191.114 479.085C190.68 479.426 190.605 480.055 190.946 480.489C191.287 480.923 191.916 480.998 192.35 480.657L191.114 479.085ZM216.019 461.664C216.446 461.314 216.509 460.684 216.158 460.257C215.808 459.83 215.178 459.767 214.751 460.118L216.019 461.664ZM237.927 440.641C237.508 441.002 237.462 441.633 237.822 442.051C238.183 442.47 238.814 442.516 239.233 442.156L237.927 440.641ZM261.853 422.081C262.261 421.708 262.289 421.076 261.916 420.668C261.543 420.261 260.91 420.233 260.503 420.606L261.853 422.081ZM282.453 399.804C282.059 400.191 282.054 400.825 282.441 401.218C282.829 401.612 283.462 401.617 283.856 401.23L282.453 399.804ZM305.01 379.481C305.385 379.076 305.361 378.443 304.956 378.068C304.551 377.692 303.919 377.716 303.543 378.121L305.01 379.481ZM323.458 355.388C323.107 355.815 323.169 356.445 323.595 356.796C324.022 357.147 324.652 357.085 325.003 356.659L323.458 355.388ZM343.351 332.538C343.667 332.085 343.555 331.461 343.102 331.146C342.648 330.83 342.025 330.942 341.71 331.396L343.351 332.538ZM357.587 305.757C357.325 306.244 357.507 306.85 357.994 307.112C358.48 307.374 359.086 307.192 359.348 306.705L357.587 305.757ZM371.6 278.876C371.776 278.353 371.494 277.786 370.971 277.61C370.447 277.434 369.88 277.716 369.705 278.24L371.6 278.876ZM375.783 248.943C375.745 249.494 376.161 249.971 376.712 250.009C377.263 250.047 377.74 249.631 377.778 249.08L375.783 248.943ZM374.842 218.786C374.695 218.254 374.143 217.942 373.611 218.09C373.079 218.238 372.768 218.789 372.915 219.322L374.842 218.786ZM360.147 192.425C360.46 192.879 361.083 192.993 361.538 192.679C361.992 192.365 362.106 191.743 361.792 191.288L360.147 192.425ZM342.099 168.97C341.698 168.59 341.065 168.608 340.685 169.009C340.305 169.409 340.322 170.042 340.723 170.422L342.099 168.97ZM318.393 152.738C318.858 153.036 319.477 152.901 319.775 152.436C320.073 151.971 319.938 151.353 319.474 151.055L318.393 152.738ZM293.445 138.572C292.92 138.403 292.357 138.693 292.188 139.218C292.019 139.744 292.309 140.307 292.835 140.476L293.445 138.572ZM264.884 136.283C265.436 136.271 265.874 135.813 265.862 135.261C265.85 134.709 265.393 134.271 264.84 134.283L264.884 136.283ZM236.493 140.006C235.979 140.208 235.725 140.788 235.926 141.302C236.128 141.816 236.708 142.07 237.222 141.868L236.493 140.006ZM212.857 156.257C213.285 155.908 213.349 155.278 213 154.85C212.651 154.423 212.021 154.359 211.593 154.708L212.857 156.257ZM191.838 175.806C191.515 176.253 191.616 176.878 192.064 177.202C192.511 177.525 193.136 177.424 193.46 176.976L191.838 175.806ZM179.647 201.825C179.858 201.315 179.615 200.73 179.104 200.519C178.594 200.308 178.009 200.551 177.798 201.061L179.647 201.825ZM170.791 229.835C170.777 230.387 171.214 230.845 171.766 230.859C172.318 230.872 172.776 230.436 172.79 229.884L170.791 229.835ZM177.816 259.085C177.635 258.564 177.066 258.287 176.544 258.468C176.022 258.648 175.745 259.218 175.926 259.74L177.816 259.085ZM189.064 287.015C189.352 287.486 189.967 287.635 190.439 287.347C190.91 287.059 191.059 286.444 190.771 285.972L189.064 287.015ZM208.303 310.284C207.95 309.859 207.32 309.801 206.895 310.154C206.47 310.507 206.412 311.137 206.765 311.562L208.303 310.284ZM227.39 333.692C227.787 334.076 228.42 334.065 228.804 333.667C229.187 333.27 229.176 332.637 228.779 332.253L227.39 333.692ZM251.34 352.097C250.91 351.751 250.28 351.819 249.934 352.25C249.588 352.68 249.656 353.31 250.087 353.656L251.34 352.097ZM274.381 371.627C274.837 371.938 275.459 371.82 275.77 371.363C276.081 370.906 275.963 370.284 275.506 369.974L274.381 371.627ZM300.956 385.957C300.478 385.68 299.867 385.843 299.59 386.322C299.314 386.8 299.477 387.411 299.955 387.688L300.956 385.957ZM326.621 401.888C327.118 402.13 327.717 401.924 327.959 401.428C328.201 400.932 327.996 400.333 327.499 400.091L326.621 401.888ZM354.96 412.357C354.448 412.149 353.865 412.396 353.657 412.907C353.449 413.419 353.695 414.002 354.207 414.21L354.96 412.357ZM382.57 424.614C383.094 424.786 383.659 424.5 383.832 423.975C384.004 423.451 383.718 422.886 383.194 422.713L382.57 424.614ZM412.071 431.096C411.535 430.96 410.992 431.285 410.856 431.82C410.721 432.356 411.045 432.899 411.581 433.035L412.071 431.096ZM441.333 438.917C441.882 438.978 442.376 438.583 442.438 438.034C442.499 437.485 442.104 436.991 441.555 436.929L441.333 438.917ZM471.612 437.615C471.061 437.648 470.64 438.121 470.673 438.672C470.705 439.224 471.178 439.644 471.73 439.612L471.612 437.615ZM501.84 435.71C502.382 435.603 502.735 435.078 502.628 434.536C502.522 433.994 501.996 433.641 501.454 433.747L501.84 435.71ZM530.659 426.269C530.132 426.434 529.839 426.995 530.004 427.522C530.169 428.049 530.731 428.342 531.258 428.177L530.659 426.269ZM559.815 417.705C560.325 417.492 560.565 416.906 560.351 416.396C560.138 415.887 559.552 415.647 559.043 415.86L559.815 417.705ZM586.356 403.082C585.866 403.336 585.674 403.939 585.927 404.43C586.181 404.92 586.784 405.113 587.274 404.859L586.356 403.082ZM613.737 389.934C614.208 389.646 614.356 389.03 614.068 388.559C613.779 388.088 613.164 387.94 612.693 388.228L613.737 389.934ZM637.9 371.616C637.449 371.935 637.342 372.559 637.661 373.01C637.98 373.461 638.604 373.568 639.055 373.249L637.9 371.616ZM663.293 354.93C663.723 354.583 663.79 353.953 663.444 353.523C663.097 353.093 662.467 353.026 662.037 353.373L663.293 354.93ZM684.953 333.719C684.544 334.091 684.515 334.724 684.887 335.132C685.259 335.54 685.892 335.569 686.3 335.197L684.953 333.719ZM708.107 314.091C708.492 313.695 708.484 313.062 708.088 312.676C707.692 312.291 707.059 312.3 706.674 312.696L708.107 314.091ZM727.098 290.414C726.737 290.832 726.784 291.463 727.202 291.824C727.62 292.185 728.252 292.138 728.612 291.72L727.098 290.414ZM747.725 268.166C748.06 267.727 747.975 267.099 747.536 266.764C747.097 266.43 746.469 266.514 746.134 266.954L747.725 268.166ZM763.697 242.358C763.39 242.818 763.514 243.439 763.973 243.745C764.432 244.052 765.053 243.928 765.36 243.469L763.697 242.358ZM781.388 217.703C781.665 217.225 781.501 216.613 781.023 216.337C780.545 216.061 779.933 216.224 779.657 216.703L781.388 217.703ZM793.88 190.053C793.637 190.549 793.842 191.148 794.338 191.391C794.833 191.634 795.432 191.43 795.676 190.934L793.88 190.053ZM808.075 163.233C808.282 162.721 808.036 162.138 807.524 161.931C807.012 161.723 806.429 161.97 806.221 162.482L808.075 163.233ZM816.518 134.09C816.35 134.616 816.639 135.179 817.165 135.348C817.691 135.517 818.254 135.227 818.423 134.701L816.518 134.09ZM826.554 105.463C826.681 104.925 826.348 104.387 825.81 104.26C825.273 104.133 824.734 104.466 824.607 105.004L826.554 105.463ZM830.334 75.3592C830.252 75.9054 830.628 76.4148 831.174 76.497C831.721 76.5793 832.23 76.2032 832.312 75.6571L830.334 75.3592ZM835.558 45.4665C835.593 44.9154 835.175 44.4399 834.624 44.4044C834.073 44.3689 833.597 44.787 833.562 45.3381L835.558 45.4665ZM834.186 15.1831C834.199 15.7353 834.657 16.1725 835.209 16.1598C835.761 16.147 836.199 15.6891 836.186 15.1369L834.186 15.1831ZM6.54236 611.34C10.8651 608.55 15.1474 605.773 19.3894 603.009L18.2977 601.333C14.0581 604.095 9.7781 606.871 5.45764 609.66L6.54236 611.34ZM44.6648 586.386C53.2097 580.711 61.5789 575.095 69.7737 569.537L68.651 567.882C60.4618 573.436 52.098 579.049 43.5583 584.72L44.6648 586.386ZM94.7107 552.43C103.163 546.562 111.413 540.762 119.464 535.028L118.304 533.399C110.26 539.128 102.016 544.924 93.5703 550.787L94.7107 552.43ZM144.013 517.293C152.353 511.18 160.456 505.144 168.325 499.185L167.117 497.59C159.257 503.543 151.162 509.572 142.831 515.68L144.013 517.293ZM192.35 480.657C200.523 474.234 208.412 467.903 216.019 461.664L214.751 460.118C207.155 466.348 199.277 472.67 191.114 479.085L192.35 480.657ZM239.233 442.156C247.124 435.351 254.663 428.66 261.853 422.081L260.503 420.606C253.328 427.171 245.804 433.849 237.927 440.641L239.233 442.156ZM283.856 401.23C291.373 393.833 298.422 386.584 305.01 379.481L303.543 378.121C296.978 385.2 289.95 392.427 282.453 399.804L283.856 401.23ZM325.003 356.659C331.785 348.413 337.898 340.374 343.351 332.538L341.71 331.396C336.29 339.183 330.21 347.179 323.458 355.388L325.003 356.659ZM359.348 306.705C364.515 297.107 368.592 287.835 371.6 278.876L369.705 278.24C366.737 287.077 362.708 296.245 357.587 305.757L359.348 306.705ZM377.778 249.08C378.507 238.487 377.512 228.396 374.842 218.786L372.915 219.322C375.522 228.702 376.497 238.565 375.783 248.943L377.778 249.08ZM361.792 191.288C358.966 187.195 355.779 183.209 352.239 179.326L350.761 180.674C354.245 184.494 357.375 188.41 360.147 192.425L361.792 191.288ZM352.239 179.326C348.863 175.624 345.481 172.175 342.099 168.97L340.723 170.422C344.069 173.592 347.417 177.006 350.761 180.674L352.239 179.326ZM319.474 151.055C310.698 145.421 301.992 141.314 293.445 138.572L292.835 140.476C301.203 143.161 309.752 147.191 318.393 152.738L319.474 151.055ZM264.84 134.283C254.908 134.501 245.401 136.516 236.493 140.006L237.222 141.868C245.921 138.46 255.197 136.496 264.884 136.283L264.84 134.283ZM211.593 154.708C204.209 160.73 197.571 167.863 191.838 175.806L193.46 176.976C199.097 169.166 205.617 162.163 212.857 156.257L211.593 154.708ZM177.798 201.061C175.961 205.506 174.368 210.072 173.038 214.725L174.962 215.275C176.27 210.694 177.838 206.2 179.647 201.825L177.798 201.061ZM173.038 214.725C171.656 219.562 170.919 224.614 170.791 229.835L172.79 229.884C172.914 224.82 173.629 219.938 174.962 215.275L173.038 214.725ZM175.926 259.74C179.01 268.649 183.432 277.792 189.064 287.015L190.771 285.972C185.201 276.852 180.846 267.838 177.816 259.085L175.926 259.74ZM206.765 311.562C212.944 318.999 219.839 326.402 227.39 333.692L228.779 332.253C221.277 325.01 214.432 317.66 208.303 310.284L206.765 311.562ZM250.087 353.656C257.737 359.809 265.849 365.817 274.381 371.627L275.506 369.974C267.017 364.193 258.948 358.216 251.34 352.097L250.087 353.656ZM299.955 387.688C308.531 392.649 317.43 397.397 326.621 401.888L327.499 400.091C318.35 395.62 309.492 390.895 300.956 385.957L299.955 387.688ZM354.207 414.21C363.436 417.959 372.9 421.439 382.57 424.614L383.194 422.713C373.568 419.553 364.147 416.089 354.96 412.357L354.207 414.21ZM411.581 433.035C416.443 434.264 421.347 435.413 426.289 436.478L426.711 434.522C421.791 433.463 416.91 432.319 412.071 431.096L411.581 433.035ZM426.289 436.478C431.197 437.535 436.216 438.346 441.333 438.917L441.555 436.929C436.502 436.365 431.55 435.565 426.711 434.522L426.289 436.478ZM471.73 439.612C481.547 439.033 491.608 437.719 501.84 435.71L501.454 433.747C491.304 435.741 481.333 437.042 471.612 437.615L471.73 439.612ZM531.258 428.177C540.71 425.212 550.247 421.712 559.815 417.705L559.043 415.86C549.528 419.845 540.049 423.323 530.659 426.269L531.258 428.177ZM587.274 404.859C596.124 400.287 604.959 395.304 613.737 389.934L612.693 388.228C603.955 393.574 595.162 398.533 586.356 403.082L587.274 404.859ZM639.055 373.249C647.233 367.466 655.324 361.353 663.293 354.93L662.037 353.373C654.101 359.77 646.043 365.858 637.9 371.616L639.055 373.249ZM686.3 335.197C693.725 328.429 701.005 321.388 708.107 314.091L706.674 312.696C699.6 319.964 692.349 326.978 684.953 333.719L686.3 335.197ZM728.612 291.72C735.194 284.094 741.575 276.237 747.725 268.166L746.134 266.954C740.009 274.992 733.653 282.817 727.098 290.414L728.612 291.72ZM765.36 243.469C770.967 235.07 776.32 226.477 781.388 217.703L779.657 216.703C774.61 225.438 769.281 233.995 763.697 242.358L765.36 243.469ZM795.676 190.934C800.128 181.859 804.271 172.62 808.075 163.233L806.221 162.482C802.436 171.824 798.313 181.019 793.88 190.053L795.676 190.934ZM818.423 134.701C821.506 125.082 824.226 115.331 826.554 105.463L824.607 105.004C822.292 114.82 819.586 124.52 816.518 134.09L818.423 134.701ZM832.312 75.6571C833.813 65.6889 834.904 55.6206 835.558 45.4665L833.562 45.3381C832.912 55.4343 831.827 65.446 830.334 75.3592L832.312 75.6571ZM836.186 15.1369C836.138 13.0761 836.072 11.0125 835.987 8.94606L833.989 9.02822C834.073 11.0826 834.139 13.1343 834.186 15.1831L836.186 15.1369Z" fill="#D9D9D9"/>
</svg>
