<svg width="200" height="41" viewBox="0 0 200 41" fill="none" xmlns="http://www.w3.org/2000/svg">
<rect width="200" height="41" fill="#1E1E1E"/>
<g id="Desktop - 8" clip-path="url(#clip0_571_122)">
<rect width="1440" height="1024" transform="translate(-38 -21)" fill="white"/>
<g id="SVG 1" clip-path="url(#clip1_571_122)">
<g id="Layer 1">
<g id="Group">
<path id="Vector" d="M15.7955 24.192L8.1626 31.9161L15.7955 39.6402L23.4284 31.9161L15.7955 24.192Z" fill="#353535"/>
<path id="Vector_2" d="M7.70028 15.9972L0.0673828 23.7213L7.70028 31.4454L15.3332 23.7213L7.70028 15.9972Z" fill="#353535"/>
<path id="Vector_3" d="M7.63241 0.000451077L-0.000488281 7.72455L7.63241 15.4486L15.2653 7.72455L7.63241 0.000451077Z" fill="url(#paint0_linear_571_122)"/>
<path id="Vector_4" d="M23.8248 16.0645L16.1919 23.7886L23.8248 31.5127L31.4577 23.7886L23.8248 16.0645Z" fill="#353535"/>
<path id="Vector_5" d="M31.8541 7.93997L24.2212 15.6641L31.8541 23.3882L39.487 15.6641L31.8541 7.93997Z" fill="#353535"/>
<g id="Complicheck.ai">
<path id="Vector_6" d="M194.095 14.8902V12.6691H196.066V14.8902H194.095ZM194.095 29.0554V17.1339H196.066V29.0554H194.095Z" fill="#0060FF"/>
<path id="Vector_7" d="M184.847 29.3273C184.414 29.3273 183.981 29.2744 183.548 29.1687C183.115 29.0629 182.712 28.8891 182.339 28.6474C181.965 28.4056 181.667 28.0732 181.443 27.6502C181.219 27.212 181.107 26.668 181.107 26.0183C181.107 25.2024 181.301 24.53 181.689 24.0012C182.077 23.4724 182.615 23.0644 183.302 22.7773C184.004 22.4751 184.832 22.2712 185.788 22.1654C186.743 22.0445 187.781 21.9841 188.901 21.9841V20.6242C188.901 20.186 188.826 19.8083 188.677 19.491C188.528 19.1737 188.259 18.9319 187.871 18.7657C187.497 18.5844 186.96 18.4938 186.258 18.4938C185.586 18.4938 185.049 18.5844 184.646 18.7657C184.257 18.9319 183.981 19.151 183.817 19.423C183.668 19.695 183.593 19.9972 183.593 20.3296V20.6695H181.689C181.674 20.594 181.667 20.5185 181.667 20.4429C181.667 20.3674 181.667 20.2767 181.667 20.1709C181.667 19.4457 181.861 18.8413 182.249 18.3578C182.652 17.8592 183.212 17.489 183.929 17.2472C184.646 16.9904 185.467 16.8619 186.393 16.8619C187.378 16.8619 188.199 17.0055 188.856 17.2926C189.528 17.5796 190.028 17.9876 190.357 18.5164C190.7 19.0453 190.872 19.6799 190.872 20.4202V26.8796C190.872 27.1667 190.939 27.3706 191.073 27.4915C191.208 27.5973 191.372 27.6502 191.566 27.6502H192.44V28.9647C192.231 29.0553 191.999 29.1309 191.745 29.1913C191.492 29.2669 191.2 29.3047 190.872 29.3047C190.484 29.3047 190.163 29.2216 189.909 29.0553C189.655 28.9043 189.461 28.6927 189.327 28.4207C189.192 28.1337 189.103 27.8164 189.058 27.4688H188.901C188.632 27.8466 188.289 28.179 187.871 28.4661C187.468 28.738 187.012 28.9496 186.505 29.1007C185.997 29.2518 185.444 29.3273 184.847 29.3273ZM185.34 27.6502C185.818 27.6502 186.266 27.5746 186.684 27.4235C187.117 27.2724 187.497 27.0609 187.826 26.7889C188.154 26.5018 188.416 26.1619 188.61 25.769C188.804 25.3762 188.901 24.9455 188.901 24.4772V23.4799C187.692 23.4799 186.661 23.5479 185.81 23.6839C184.959 23.8199 184.302 24.0616 183.839 24.4092C183.391 24.7567 183.167 25.2477 183.167 25.8823C183.167 26.2903 183.257 26.6227 183.436 26.8796C183.615 27.1364 183.869 27.3329 184.198 27.4688C184.526 27.5897 184.907 27.6502 185.34 27.6502Z" fill="#0060FF"/>
<path id="Vector_8" d="M176.127 29.0554V26.6756H178.322V29.0554H176.127Z" fill="#171717"/>
<path id="Vector_9" d="M164.175 29.0554V12.6691H166.146V22.9133L171.14 17.1339H173.469L169.438 21.7575L173.693 29.0554H171.431L168.161 23.2306L166.146 25.2931V29.0554H164.175Z" fill="#171717"/>
<path id="Vector_10" d="M157.04 29.3273C155.905 29.3273 154.949 29.1082 154.173 28.6701C153.412 28.2168 152.829 27.5293 152.426 26.6076C152.038 25.6708 151.844 24.4998 151.844 23.0946C151.844 21.6894 152.038 20.526 152.426 19.6043C152.829 18.6826 153.419 17.9952 154.195 17.5419C154.987 17.0886 155.957 16.8619 157.107 16.8619C157.913 16.8619 158.608 16.9677 159.19 17.1792C159.787 17.3908 160.28 17.7005 160.668 18.1085C161.056 18.5164 161.34 19.0075 161.519 19.5817C161.713 20.1558 161.81 20.8131 161.81 21.5535H159.817C159.817 20.8584 159.72 20.2918 159.526 19.8536C159.347 19.4003 159.056 19.0679 158.652 18.8564C158.249 18.6298 157.719 18.5164 157.062 18.5164C156.405 18.5164 155.838 18.6675 155.36 18.9697C154.882 19.2568 154.516 19.7176 154.263 20.3522C154.009 20.9868 153.882 21.8254 153.882 22.868V23.3439C153.882 24.3261 154.001 25.142 154.24 25.7917C154.494 26.4414 154.86 26.9173 155.338 27.2195C155.815 27.5217 156.398 27.6728 157.085 27.6728C157.756 27.6728 158.294 27.5519 158.697 27.3102C159.115 27.0684 159.414 26.7209 159.593 26.2676C159.787 25.8143 159.884 25.2704 159.884 24.6358H161.81C161.81 25.3006 161.713 25.9201 161.519 26.4943C161.34 27.0684 161.056 27.5671 160.668 27.9901C160.28 28.4132 159.787 28.7456 159.19 28.9874C158.593 29.214 157.876 29.3273 157.04 29.3273Z" fill="#171717"/>
<path id="Vector_11" d="M144.994 29.3273C143.829 29.3273 142.844 29.1082 142.037 28.6701C141.246 28.2168 140.641 27.5293 140.223 26.6076C139.82 25.6859 139.619 24.5149 139.619 23.0946C139.619 21.6592 139.82 20.4882 140.223 19.5817C140.641 18.66 141.254 17.98 142.06 17.5419C142.866 17.0886 143.874 16.8619 145.083 16.8619C146.188 16.8619 147.114 17.081 147.861 17.5192C148.607 17.9423 149.167 18.5844 149.54 19.4457C149.929 20.2918 150.123 21.357 150.123 22.6413V23.5932H141.657C141.687 24.5451 141.821 25.3308 142.06 25.9503C142.314 26.5547 142.687 27.0004 143.18 27.2875C143.672 27.5595 144.292 27.6955 145.039 27.6955C145.546 27.6955 145.987 27.635 146.36 27.5142C146.748 27.3782 147.069 27.1893 147.323 26.9476C147.592 26.7058 147.793 26.4187 147.928 26.0863C148.062 25.7539 148.137 25.3913 148.152 24.9984H150.078C150.063 25.633 149.944 26.2223 149.72 26.7663C149.496 27.2951 149.167 27.7484 148.734 28.1261C148.301 28.5038 147.771 28.7985 147.144 29.01C146.517 29.2216 145.8 29.3273 144.994 29.3273ZM141.702 22.0974H148.085C148.085 21.4326 148.01 20.8735 147.861 20.4202C147.711 19.967 147.495 19.5968 147.211 19.3097C146.942 19.0226 146.621 18.8186 146.248 18.6977C145.89 18.5618 145.479 18.4938 145.016 18.4938C144.329 18.4938 143.747 18.6222 143.269 18.8791C142.792 19.1359 142.426 19.5288 142.172 20.0576C141.918 20.5864 141.761 21.2664 141.702 22.0974Z" fill="#171717"/>
<path id="Vector_12" d="M127.671 29.0554V12.6691H129.642V18.6298H129.799C130.097 18.2218 130.433 17.8894 130.806 17.6326C131.18 17.3757 131.59 17.1868 132.038 17.0659C132.501 16.93 133.001 16.862 133.539 16.862C134.285 16.862 134.935 16.9904 135.487 17.2473C136.055 17.5041 136.495 17.9196 136.809 18.4938C137.137 19.068 137.301 19.8461 137.301 20.8282V29.0554H135.331V21.1002C135.331 20.6016 135.263 20.1936 135.129 19.8763C135.01 19.559 134.838 19.3097 134.614 19.1284C134.405 18.9471 134.144 18.8187 133.83 18.7431C133.531 18.6676 133.195 18.6298 132.822 18.6298C132.27 18.6298 131.747 18.7658 131.254 19.0377C130.762 19.2946 130.366 19.6799 130.067 20.1936C129.784 20.6922 129.642 21.3117 129.642 22.0521V29.0554H127.671Z" fill="#171717"/>
<path id="Vector_13" d="M120.536 29.3273C119.401 29.3273 118.446 29.1082 117.669 28.6701C116.908 28.2168 116.325 27.5293 115.922 26.6076C115.534 25.6708 115.34 24.4998 115.34 23.0946C115.34 21.6894 115.534 20.526 115.922 19.6043C116.325 18.6826 116.915 17.9952 117.691 17.5419C118.483 17.0886 119.453 16.8619 120.603 16.8619C121.409 16.8619 122.104 16.9677 122.686 17.1792C123.283 17.3908 123.776 17.7005 124.164 18.1085C124.552 18.5164 124.836 19.0075 125.015 19.5817C125.209 20.1558 125.306 20.8131 125.306 21.5535H123.313C123.313 20.8584 123.216 20.2918 123.022 19.8536C122.843 19.4003 122.552 19.0679 122.148 18.8564C121.745 18.6298 121.215 18.5164 120.558 18.5164C119.901 18.5164 119.334 18.6675 118.856 18.9697C118.378 19.2568 118.013 19.7176 117.759 20.3522C117.505 20.9868 117.378 21.8254 117.378 22.868V23.3439C117.378 24.3261 117.497 25.142 117.736 25.7917C117.99 26.4414 118.356 26.9173 118.834 27.2195C119.312 27.5217 119.894 27.6728 120.581 27.6728C121.253 27.6728 121.79 27.5519 122.193 27.3102C122.611 27.0684 122.91 26.7209 123.089 26.2676C123.283 25.8143 123.38 25.2704 123.38 24.6358H125.306C125.306 25.3006 125.209 25.9201 125.015 26.4943C124.836 27.0684 124.552 27.5671 124.164 27.9901C123.776 28.4132 123.283 28.7456 122.686 28.9874C122.089 29.214 121.372 29.3273 120.536 29.3273Z" fill="#171717"/>
<path id="Vector_14" d="M111.026 14.8902V12.6691H112.997V14.8902H111.026ZM111.026 29.0554V17.1339H112.997V29.0554H111.026Z" fill="#171717"/>
<path id="Vector_15" d="M105.996 29.0554V12.6691H107.967V29.0554H105.996Z" fill="#171717"/>
<path id="Vector_16" d="M93.2881 32.9763V17.1339H94.8559L95.0574 18.8337H95.2142C95.6173 18.1689 96.1325 17.6779 96.7596 17.3606C97.3867 17.0281 98.0959 16.8619 98.8873 16.8619C99.8727 16.8619 100.709 17.081 101.396 17.5192C102.083 17.9574 102.613 18.6449 102.986 19.5817C103.359 20.5033 103.546 21.7046 103.546 23.1853C103.546 24.5754 103.352 25.7312 102.963 26.6529C102.59 27.5595 102.06 28.2319 101.373 28.6701C100.686 29.1082 99.8877 29.3273 98.9769 29.3273C98.4692 29.3273 97.9914 29.2669 97.5435 29.146C97.0955 29.0251 96.6924 28.8363 96.334 28.5794C95.9757 28.3074 95.6621 27.9675 95.3934 27.5595H95.259V32.9763H93.2881ZM98.3497 27.5822C99.0814 27.5822 99.6786 27.4386 100.141 27.1515C100.604 26.8494 100.948 26.3885 101.172 25.769C101.396 25.1344 101.508 24.3261 101.508 23.3439V22.868C101.508 21.8254 101.388 20.9944 101.149 20.3749C100.91 19.7403 100.56 19.287 100.097 19.015C99.6488 18.7431 99.0888 18.6071 98.4169 18.6071C97.6853 18.6071 97.0806 18.7733 96.6028 19.1057C96.1399 19.423 95.7965 19.9065 95.5726 20.5562C95.3635 21.2059 95.259 21.9992 95.259 22.936V23.2759C95.259 24.107 95.3337 24.802 95.483 25.3611C95.6472 25.905 95.8712 26.3432 96.1549 26.6756C96.4535 27.008 96.7894 27.2422 97.1627 27.3782C97.536 27.5142 97.9317 27.5822 98.3497 27.5822Z" fill="#171717"/>
<path id="Vector_17" d="M74.019 29.0553V17.1339H75.6092L75.7884 18.9244H75.9452C76.2438 18.4409 76.5797 18.048 76.953 17.7458C77.3263 17.4437 77.7369 17.2246 78.1848 17.0886C78.6328 16.9375 79.118 16.8619 79.6406 16.8619C80.4021 16.8619 81.0591 17.0206 81.6115 17.3379C82.164 17.6401 82.5746 18.1689 82.8434 18.9244H82.9777C83.2614 18.4409 83.5899 18.0556 83.9632 17.7685C84.3365 17.4663 84.7545 17.2397 85.2174 17.0886C85.6803 16.9375 86.173 16.8619 86.6956 16.8619C87.4123 16.8619 88.0394 16.9904 88.5769 17.2472C89.1144 17.489 89.5325 17.8969 89.8311 18.4711C90.1447 19.0302 90.3015 19.7856 90.3015 20.7375V29.0553H88.3306V21.0548C88.3306 20.5713 88.2708 20.1709 88.1514 19.8536C88.0469 19.5363 87.8901 19.2946 87.681 19.1284C87.472 18.9471 87.2256 18.8186 86.942 18.7431C86.6732 18.6675 86.382 18.6298 86.0685 18.6298C85.5459 18.6298 85.0606 18.7657 84.6127 19.0377C84.1797 19.3097 83.8288 19.7025 83.56 20.2163C83.2913 20.73 83.1569 21.3419 83.1569 22.0521V29.0553H81.186V21.0548C81.186 20.5713 81.1263 20.1709 81.0068 19.8536C80.8874 19.5363 80.7306 19.2946 80.5365 19.1284C80.3424 18.9471 80.1035 18.8186 79.8198 18.7431C79.551 18.6675 79.2673 18.6298 78.9687 18.6298C78.4312 18.6298 77.931 18.7657 77.4681 19.0377C77.0202 19.3097 76.6619 19.7025 76.3931 20.2163C76.1243 20.73 75.99 21.3419 75.99 22.0521V29.0553H74.019Z" fill="#171717"/>
<path id="Vector_18" d="M66.0838 29.3273C64.8893 29.3273 63.8815 29.1082 63.0603 28.6701C62.254 28.2168 61.6343 27.5293 61.2013 26.6076C60.7833 25.6859 60.5742 24.5149 60.5742 23.0946C60.5742 21.6592 60.7833 20.4882 61.2013 19.5817C61.6343 18.66 62.254 17.98 63.0603 17.5419C63.8815 17.0886 64.8893 16.8619 66.0838 16.8619C67.2783 16.8619 68.2787 17.0886 69.085 17.5419C69.9062 17.98 70.5258 18.66 70.9439 19.5817C71.362 20.4882 71.571 21.6592 71.571 23.0946C71.571 24.5149 71.362 25.6859 70.9439 26.6076C70.5258 27.5293 69.9062 28.2168 69.085 28.6701C68.2787 29.1082 67.2783 29.3273 66.0838 29.3273ZM66.0838 27.6502C66.8453 27.6502 67.4799 27.4991 67.9875 27.1969C68.4952 26.8947 68.8759 26.4263 69.1298 25.7917C69.3985 25.142 69.5329 24.3261 69.5329 23.3439V22.8453C69.5329 21.8481 69.3985 21.0322 69.1298 20.3976C68.8759 19.763 68.4952 19.2946 67.9875 18.9924C67.4799 18.6902 66.8453 18.5391 66.0838 18.5391C65.3223 18.5391 64.6803 18.6902 64.1577 18.9924C63.65 19.2946 63.2693 19.763 63.0155 20.3976C62.7616 21.0322 62.6347 21.8481 62.6347 22.8453V23.3439C62.6347 24.3261 62.7616 25.142 63.0155 25.7917C63.2693 26.4263 63.65 26.8947 64.1577 27.1969C64.6803 27.4991 65.3223 27.6502 66.0838 27.6502Z" fill="#171717"/>
<path id="Vector_19" d="M51.8945 29.3273C50.3267 29.3273 48.9978 29.0403 47.9078 28.4661C46.8179 27.8768 45.9817 26.9929 45.3994 25.8144C44.832 24.6207 44.5483 23.1097 44.5483 21.2815C44.5483 18.5769 45.1978 16.5598 46.4969 15.2301C47.7959 13.9005 49.6025 13.2357 51.9169 13.2357C53.2308 13.2357 54.3954 13.4547 55.4108 13.8929C56.4261 14.316 57.2174 14.9657 57.7848 15.8421C58.3671 16.7033 58.6583 17.7912 58.6583 19.1057H56.5082C56.5082 18.1991 56.3141 17.4512 55.9259 16.8619C55.5526 16.2727 55.0225 15.8345 54.3357 15.5474C53.6489 15.2452 52.8426 15.0941 51.9169 15.0941C50.8418 15.0941 49.9161 15.3057 49.1397 15.7287C48.3632 16.1518 47.7735 16.8091 47.3703 17.7005C46.9672 18.5769 46.7656 19.7101 46.7656 21.1002V21.5761C46.7656 22.9511 46.9672 24.0768 47.3703 24.9531C47.7735 25.8144 48.3558 26.449 49.1173 26.8569C49.8937 27.2649 50.8269 27.4689 51.9169 27.4689C52.8725 27.4689 53.6937 27.3253 54.3805 27.0382C55.0823 26.7512 55.6198 26.313 55.9931 25.7237C56.3813 25.1193 56.5754 24.3638 56.5754 23.4573H58.6583C58.6583 24.802 58.3597 25.905 57.7624 26.7663C57.1801 27.6275 56.3813 28.2697 55.366 28.6927C54.3506 29.1158 53.1935 29.3273 51.8945 29.3273Z" fill="#171717"/>
</g>
</g>
</g>
</g>
</g>
<defs>
<linearGradient id="paint0_linear_571_122" x1="0.00109367" y1="7.72502" x2="15.2678" y2="7.72502" gradientUnits="userSpaceOnUse">
<stop stop-color="#009FDD"/>
<stop offset="1" stop-color="#003EED"/>
</linearGradient>
<clipPath id="clip0_571_122">
<rect width="1440" height="1024" fill="white" transform="translate(-38 -21)"/>
</clipPath>
<clipPath id="clip1_571_122">
<rect width="200" height="41" fill="white"/>
</clipPath>
</defs>
</svg>
